<?xml version="1.0" encoding="UTF-8" standalone="no"?>
<!-- Created with Inkscape (http://www.inkscape.org/) -->

<svg
   xmlns:dc="http://purl.org/dc/elements/1.1/"
   xmlns:cc="http://creativecommons.org/ns#"
   xmlns:rdf="http://www.w3.org/1999/02/22-rdf-syntax-ns#"
   xmlns:svg="http://www.w3.org/2000/svg"
   xmlns="http://www.w3.org/2000/svg"
   xmlns:sodipodi="http://sodipodi.sourceforge.net/DTD/sodipodi-0.dtd"
   xmlns:inkscape="http://www.inkscape.org/namespaces/inkscape"
   width="300mm"
   height="300mm"
   viewBox="0 0 300 300"
   version="1.1"
   id="svg99"
   inkscape:version="0.92.3 (2405546, 2018-03-11)"
   sodipodi:docname="ScreenSaver.svg"
   inkscape:export-filename="/home/ashwek/AndroidStudioProjects/ScreenSaver.svg.png"
   inkscape:export-xdpi="130.048"
   inkscape:export-ydpi="130.048">
  <defs
     id="defs93" />
  <sodipodi:namedview
     id="base"
     pagecolor="#ffffff"
     bordercolor="#666666"
     borderopacity="1.0"
     inkscape:pageopacity="0.0"
     inkscape:pageshadow="2"
     inkscape:zoom="0.25908834"
     inkscape:cx="1711.5326"
     inkscape:cy="298.0837"
     inkscape:document-units="mm"
     inkscape:current-layer="svg99"
     showgrid="false"
     inkscape:window-width="1311"
     inkscape:window-height="704"
     inkscape:window-x="55"
     inkscape:window-y="27"
     inkscape:window-maximized="1"
     showguides="false"
     inkscape:guide-bbox="true">
    <sodipodi:guide
       position="9.9999999,150"
       orientation="0,1"
       id="guide1170"
       inkscape:locked="false"
       inkscape:label=""
       inkscape:color="rgb(0,0,255)" />
    <sodipodi:guide
       position="74.999999,147.05409"
       orientation="1,0"
       id="guide1182"
       inkscape:locked="false"
       inkscape:label=""
       inkscape:color="rgb(0,0,255)" />
    <sodipodi:guide
       position="79.999999,145.45878"
       orientation="1,0"
       id="guide1184"
       inkscape:locked="false"
       inkscape:label=""
       inkscape:color="rgb(0,0,255)" />
    <sodipodi:guide
       position="84.999999,146.03288"
       orientation="1,0"
       id="guide1186"
       inkscape:locked="false"
       inkscape:label=""
       inkscape:color="rgb(0,0,255)" />
    <sodipodi:guide
       position="89.999999,138.50146"
       orientation="1,0"
       id="guide1188"
       inkscape:locked="false"
       inkscape:label=""
       inkscape:color="rgb(0,0,255)" />
    <sodipodi:guide
       position="94.999999,137.92703"
       orientation="1,0"
       id="guide1190"
       inkscape:locked="false"
       inkscape:label=""
       inkscape:color="rgb(0,0,255)" />
    <sodipodi:guide
       position="99.999999,136.39522"
       orientation="1,0"
       id="guide1192"
       inkscape:locked="false"
       inkscape:label=""
       inkscape:color="rgb(0,0,255)" />
    <sodipodi:guide
       position="105,136.13992"
       orientation="1,0"
       id="guide1194"
       inkscape:locked="false"
       inkscape:label=""
       inkscape:color="rgb(0,0,255)" />
    <sodipodi:guide
       position="110,135.82079"
       orientation="1,0"
       id="guide1196"
       inkscape:locked="false"
       inkscape:label=""
       inkscape:color="rgb(0,0,255)" />
    <sodipodi:guide
       position="62.995826,140"
       orientation="0,1"
       id="guide1200"
       inkscape:locked="false"
       inkscape:label=""
       inkscape:color="rgb(0,0,255)" />
    <sodipodi:guide
       position="64.399988,160"
       orientation="0,1"
       id="guide1202"
       inkscape:locked="false"
       inkscape:label=""
       inkscape:color="rgb(0,0,255)" />
    <sodipodi:guide
       position="65.931802,180"
       orientation="0,1"
       id="guide1204"
       inkscape:locked="false"
       inkscape:label=""
       inkscape:color="rgb(0,0,255)" />
    <sodipodi:guide
       position="65.038244,120"
       orientation="0,1"
       id="guide1208"
       inkscape:locked="false"
       inkscape:label=""
       inkscape:color="rgb(0,0,255)" />
    <sodipodi:guide
       position="115,147.48969"
       orientation="1,0"
       id="guide1210"
       inkscape:locked="false"
       inkscape:label=""
       inkscape:color="rgb(0,0,255)" />
    <sodipodi:guide
       position="120,164.15934"
       orientation="1,0"
       id="guide1212"
       inkscape:locked="false"
       inkscape:label=""
       inkscape:color="rgb(0,0,255)" />
  </sodipodi:namedview>
  <rect
     style="fill:#ffffff;fill-opacity:1;stroke:#ffffff;stroke-width:2.05107236;stroke-linecap:round;stroke-linejoin:round;stroke-miterlimit:4;stroke-dasharray:none;stroke-dashoffset:0;stroke-opacity:1"
     id="rect1265"
     width="297.94894"
     height="297.94891"
     x="1.0255362"
     y="1.0255252"
     rx="2.8854027"
     ry="1.0528226" />
  <rect
     style="fill:#000000;fill-opacity:1;stroke:#000000;stroke-width:1.61833465;stroke-miterlimit:4;stroke-dasharray:none"
     id="rect1081"
     width="148.38167"
     height="278.38165"
     x="70.809166"
     y="10.809179"
     rx="15"
     ry="15" />
  <rect
     style="fill:#ffffff;fill-opacity:1;stroke-width:1.5816648;stroke-miterlimit:4;stroke-dasharray:none"
     id="rect1081-6"
     width="144"
     height="274"
     x="73"
     y="13"
     rx="14.557055"
     ry="14.763904" />
  <path
     style="fill:#000000;fill-opacity:1;stroke-width:1.81669176;stroke-miterlimit:4;stroke-dasharray:none"
     d="m 112.69829,10.079123 64.69368,-0.04513 c 2.77,-0.0019 2.60803,2.320263 2.60803,5.090263 0,2.77 -2.23,5 -5,5 h -60 c -2.77,0 -5,-2.23 -5,-5 0,-2.77 -0.0717,-5.043199 2.69829,-5.045131 z"
     id="rect1104"
     inkscape:connector-curvature="0"
     sodipodi:nodetypes="sssssss" />
  <rect
     style="fill:#000000;fill-opacity:1;stroke-width:0.97106248;stroke-miterlimit:4;stroke-dasharray:none"
     id="rect1107"
     width="3"
     height="15"
     x="68"
     y="62.195332"
     rx="1"
     ry="1" />
  <rect
     style="fill:#000000;fill-opacity:1;stroke-width:1.58573842;stroke-miterlimit:4;stroke-dasharray:none"
     id="rect1107-7"
     width="3"
     height="40"
     x="68"
     y="85.090477"
     rx="1"
     ry="1" />
  <metadata
     id="metadata1124">
    <rdf:RDF>
      <cc:Work
         rdf:about="">
        <dc:title></dc:title>
        <dc:format>image/svg+xml</dc:format>
        <dc:type
           rdf:resource="http://purl.org/dc/dcmitype/StillImage" />
      </cc:Work>
    </rdf:RDF>
  </metadata>
  <path
     style="fill:none;stroke:#ff0000;stroke-width:2;stroke-linecap:round;stroke-linejoin:round;stroke-miterlimit:4;stroke-dasharray:none;stroke-dashoffset:0;stroke-opacity:1"
     d="m 75,150 h 7.415065 l 2.945987,-9.63895 3.916844,20.95696 L 95,120 l 5,59.81947 5.38483,-40 4.52037,20.18053 2.79708,-10 h 100.19068"
     id="path1168"
     inkscape:connector-curvature="0"
     sodipodi:nodetypes="cccccccccc" />
  <g
     aria-label="Screen"
     style="font-style:normal;font-weight:normal;font-size:7.05555534px;line-height:1.25;font-family:sans-serif;letter-spacing:0px;word-spacing:0px;fill:#ff0000;fill-opacity:1;stroke:none;stroke-width:0.26458332"
     id="text1216"
     transform="matrix(1.1129131,0,0,1.112915,-19.543203,-20.210643)">
    <path
       d="m 137.12734,128.93934 -0.48232,2.38746 q -1.27813,-0.67524 -2.43568,-0.98875 -1.15755,-0.33762 -2.29099,-0.33762 -2.0016,0 -3.2315,0.77171 -1.2299,0.7717 -1.51929,2.19452 -0.24115,1.20578 0.33762,1.80868 0.6029,0.60289 2.55626,0.98874 l 1.39871,0.28939 q 2.62861,0.53054 3.66559,1.83279 1.03697,1.30224 0.57877,3.49677 -0.50643,2.62861 -2.53214,3.97908 -2.02572,1.35048 -5.42603,1.35048 -1.27813,0 -2.67684,-0.28939 -1.37459,-0.28938 -2.79742,-0.86816 l 0.50643,-2.50803 q 1.32636,0.81993 2.65273,1.25402 1.35047,0.43408 2.72507,0.43408 2.09806,0 3.37619,-0.81994 1.30225,-0.81993 1.61575,-2.36333 0.26527,-1.30225 -0.40997,-2.04983 -0.67523,-0.74759 -2.45979,-1.13344 l -1.39871,-0.28939 q -2.65273,-0.53054 -3.64147,-1.68809 -0.96463,-1.15756 -0.53054,-3.2315 0.45819,-2.38745 2.41156,-3.76205 1.95337,-1.37459 4.9196,-1.37459 1.25401,0 2.50803,0.24116 1.27813,0.21704 2.58038,0.67523 z"
       style="font-style:italic;font-variant:normal;font-weight:normal;font-stretch:normal;font-size:24.69444466px;font-family:Chandas;-inkscape-font-specification:Chandas;stroke-width:0.26458332"
       id="path1267"
       inkscape:connector-curvature="0" />
    <path
       d="m 152.0067,133.35251 -0.40996,2.07395 q -0.86817,-0.50643 -1.76045,-0.74759 -0.89228,-0.26527 -1.8569,-0.26527 -2.17041,0 -3.61735,1.37459 -1.44694,1.35048 -1.95337,3.8344 -0.48232,2.45979 0.40996,3.83439 0.9164,1.37459 3.08681,1.37459 0.96463,0 1.95337,-0.26527 0.98874,-0.26527 2.07395,-0.79582 l -0.43409,2.07395 q -1.01285,0.43408 -2.07394,0.65112 -1.03698,0.21704 -2.1463,0.21704 -3.03857,0 -4.4614,-1.92925 -1.42282,-1.92925 -0.7717,-5.16075 0.67524,-3.32797 2.86977,-5.20899 2.19452,-1.88102 5.35367,-1.88102 1.01286,0 1.95337,0.21704 0.94051,0.19293 1.78456,0.60289 z"
       style="font-style:italic;font-variant:normal;font-weight:normal;font-stretch:normal;font-size:24.69444466px;font-family:Chandas;-inkscape-font-specification:Chandas;stroke-width:0.26458332"
       id="path1269"
       inkscape:connector-curvature="0" />
    <path
       d="m 163.63046,134.92003 q -0.31351,-0.21704 -0.74759,-0.3135 -0.43408,-0.0965 -0.96463,-0.0965 -1.88102,0 -3.13503,1.2299 -1.2299,1.20579 -1.6881,3.49677 l -1.42283,7.11413 h -2.24275 l 2.70095,-13.50478 h 2.24276 l -0.40997,2.09807 q 0.9164,-1.2299 2.17041,-1.80868 1.25402,-0.60289 2.84565,-0.60289 0.24116,0 0.48232,0.0241 0.26527,0.0241 0.60289,0.0724 z"
       style="font-style:italic;font-variant:normal;font-weight:normal;font-stretch:normal;font-size:24.69444466px;font-family:Chandas;-inkscape-font-specification:Chandas;stroke-width:0.26458332"
       id="path1271"
       inkscape:connector-curvature="0" />
    <path
       d="m 178.36513,139.04381 -0.21704,1.0852 h -10.22504 q -0.31351,2.29099 0.67523,3.49678 1.01286,1.20578 3.20739,1.20578 1.30224,0 2.55626,-0.3135 1.25401,-0.31351 2.55626,-0.94051 l -0.40997,2.07394 q -1.30224,0.53055 -2.6286,0.79582 -1.30225,0.26527 -2.58038,0.26527 -3.2315,0 -4.75079,-1.88102 -1.51928,-1.88102 -0.86816,-5.11252 0.67524,-3.30385 2.84565,-5.2331 2.19452,-1.95337 5.2331,-1.95337 2.72507,0 3.95497,1.76044 1.25401,1.73633 0.65112,4.75079 z m -2.09806,-0.65112 q 0.3135,-1.80868 -0.4582,-2.89388 -0.7717,-1.08521 -2.41157,-1.08521 -1.8569,0 -3.18327,1.03697 -1.32636,1.03698 -1.8569,2.96623 z"
       style="font-style:italic;font-variant:normal;font-weight:normal;font-stretch:normal;font-size:24.69444466px;font-family:Chandas;-inkscape-font-specification:Chandas;stroke-width:0.26458332"
       id="path1273"
       inkscape:connector-curvature="0" />
    <path
       d="m 192.97922,139.04381 -0.21704,1.0852 h -10.22504 q -0.3135,2.29099 0.67524,3.49678 1.01286,1.20578 3.20738,1.20578 1.30225,0 2.55626,-0.3135 1.25402,-0.31351 2.55626,-0.94051 l -0.40996,2.07394 q -1.30225,0.53055 -2.62861,0.79582 -1.30225,0.26527 -2.58038,0.26527 -3.2315,0 -4.75078,-1.88102 -1.51929,-1.88102 -0.86817,-5.11252 0.67524,-3.30385 2.84565,-5.2331 2.19453,-1.95337 5.2331,-1.95337 2.72507,0 3.95497,1.76044 1.25402,1.73633 0.65112,4.75079 z m -2.09806,-0.65112 q 0.3135,-1.80868 -0.4582,-2.89388 -0.7717,-1.08521 -2.41156,-1.08521 -1.85691,0 -3.18327,1.03697 -1.32636,1.03698 -1.85691,2.96623 z"
       style="font-style:italic;font-variant:normal;font-weight:normal;font-stretch:normal;font-size:24.69444466px;font-family:Chandas;-inkscape-font-specification:Chandas;stroke-width:0.26458332"
       id="path1275"
       inkscape:connector-curvature="0" />
    <path
       d="m 207.42451,138.19976 -1.63987,8.1511 H 203.566 l 1.61575,-8.07875 q 0.38585,-1.92926 -0.16881,-2.86977 -0.55466,-0.94051 -2.04983,-0.94051 -1.78456,0 -3.06269,1.13344 -1.25402,1.13344 -1.63987,3.11092 l -1.5434,7.64467 h -2.24276 l 2.70096,-13.50478 h 2.24276 l -0.40997,2.09807 q 1.01286,-1.20579 2.21864,-1.80868 1.20578,-0.60289 2.60449,-0.60289 2.33922,0 3.2315,1.44694 0.9164,1.42282 0.36174,4.22024 z"
       style="font-style:italic;font-variant:normal;font-weight:normal;font-stretch:normal;font-size:24.69444466px;font-family:Chandas;-inkscape-font-specification:Chandas;stroke-width:0.26458332"
       id="path1277"
       inkscape:connector-curvature="0" />
  </g>
  <g
     aria-label="Saver"
     style="font-style:normal;font-weight:normal;font-size:7.05555534px;line-height:1.25;font-family:sans-serif;letter-spacing:0px;word-spacing:0px;fill:#ff0000;fill-opacity:1;stroke:none;stroke-width:0.26458332"
     id="text1216-1"
     transform="matrix(1.1318068,0,0,1.1318093,-24.999943,-17.179259)">
    <path
       d="m 144.59055,153.87059 -0.48231,2.38745 q -1.27813,-0.67524 -2.43568,-0.98874 -1.15755,-0.33762 -2.29099,-0.33762 -2.0016,0 -3.2315,0.7717 -1.2299,0.7717 -1.51929,2.19453 -0.24115,1.20578 0.33762,1.80867 0.60289,0.60289 2.55626,0.98874 l 1.39871,0.28939 q 2.62861,0.53055 3.66558,1.83279 1.03698,1.30225 0.57878,3.49677 -0.50643,2.62861 -2.53215,3.97909 -2.02571,1.35048 -5.42602,1.35048 -1.27813,0 -2.67684,-0.28939 -1.37459,-0.28939 -2.79742,-0.86817 l 0.50643,-2.50803 q 1.32636,0.81994 2.65273,1.25402 1.35047,0.43408 2.72507,0.43408 2.09806,0 3.37619,-0.81993 1.30225,-0.81993 1.61575,-2.36334 0.26527,-1.30224 -0.40997,-2.04983 -0.67524,-0.74758 -2.4598,-1.13344 l -1.3987,-0.28938 q -2.65273,-0.53055 -3.64147,-1.6881 -0.96463,-1.15755 -0.53055,-3.2315 0.4582,-2.38745 2.41157,-3.76204 1.95337,-1.3746 4.9196,-1.3746 1.25401,0 2.50803,0.24116 1.27813,0.21704 2.58037,0.67524 z"
       style="font-style:italic;font-variant:normal;font-weight:normal;font-stretch:normal;font-size:24.69444466px;font-family:Chandas;-inkscape-font-specification:Chandas;stroke-width:0.26458332"
       id="path1280"
       inkscape:connector-curvature="0" />
    <path
       d="m 154.62267,164.5056 q -2.67684,0 -3.83439,0.60289 -1.15755,0.60289 -1.44694,2.09806 -0.24116,1.18167 0.38585,1.88103 0.65112,0.67523 2.0016,0.67523 1.83279,0 3.18327,-1.30224 1.37459,-1.30225 1.80868,-3.47266 l 0.0965,-0.48231 z m 4.60609,-0.9164 -1.5434,7.6929 h -2.21864 l 0.40997,-2.04983 q -0.98875,1.2299 -2.24276,1.83279 -1.25401,0.57878 -2.89388,0.57878 -2.07395,0 -3.06269,-1.15756 -0.96463,-1.18166 -0.57878,-3.13503 0.4582,-2.26688 2.19453,-3.42443 1.76044,-1.15755 4.79902,-1.15755 h 3.0868 l 0.0482,-0.24116 q 0.28939,-1.51928 -0.55466,-2.33922 -0.81993,-0.84404 -2.6286,-0.84404 -1.15756,0 -2.31511,0.26527 -1.15755,0.26527 -2.29099,0.84405 l 0.40997,-2.07395 q 1.32636,-0.4582 2.50803,-0.67524 1.20578,-0.24116 2.29099,-0.24116 2.91799,0 4.05143,1.51929 1.15755,1.51929 0.53054,4.60609 z"
       style="font-style:italic;font-variant:normal;font-weight:normal;font-stretch:normal;font-size:24.69444466px;font-family:Chandas;-inkscape-font-specification:Chandas;stroke-width:0.26458332"
       id="path1282"
       inkscape:connector-curvature="0" />
    <path
       d="m 162.94258,157.77733 h 2.36333 l 1.95337,11.33436 6.48712,-11.33436 h 2.36333 l -7.76524,13.50477 h -3.03858 z"
       style="font-style:italic;font-variant:normal;font-weight:normal;font-stretch:normal;font-size:24.69444466px;font-family:Chandas;-inkscape-font-specification:Chandas;stroke-width:0.26458332"
       id="path1284"
       inkscape:connector-curvature="0" />
    <path
       d="m 188.81869,163.97505 -0.21704,1.08521 h -10.22504 q -0.31351,2.29099 0.67523,3.49677 1.01286,1.20578 3.20739,1.20578 1.30224,0 2.55626,-0.3135 1.25401,-0.3135 2.55626,-0.94051 l -0.40997,2.07395 q -1.30224,0.53054 -2.6286,0.79581 -1.30225,0.26528 -2.58038,0.26528 -3.2315,0 -4.75079,-1.88103 -1.51928,-1.88102 -0.86816,-5.11252 0.67524,-3.30384 2.84565,-5.2331 2.19452,-1.95337 5.2331,-1.95337 2.72507,0 3.95497,1.76045 1.25401,1.73632 0.65112,4.75078 z m -2.09806,-0.65112 q 0.3135,-1.80867 -0.4582,-2.89388 -0.7717,-1.0852 -2.41157,-1.0852 -1.8569,0 -3.18327,1.03697 -1.32636,1.03697 -1.8569,2.96623 z"
       style="font-style:italic;font-variant:normal;font-weight:normal;font-stretch:normal;font-size:24.69444466px;font-family:Chandas;-inkscape-font-specification:Chandas;stroke-width:0.26458332"
       id="path1286"
       inkscape:connector-curvature="0" />
    <path
       d="m 200.51479,159.85127 q -0.31351,-0.21704 -0.74759,-0.3135 -0.43408,-0.0965 -0.96462,-0.0965 -1.88103,0 -3.13504,1.2299 -1.2299,1.20578 -1.6881,3.49677 l -1.42282,7.11412 h -2.24276 l 2.70096,-13.50477 h 2.24275 l -0.40996,2.09806 q 0.91639,-1.2299 2.17041,-1.80868 1.25401,-0.60289 2.84564,-0.60289 0.24116,0 0.48232,0.0241 0.26527,0.0241 0.60289,0.0724 z"
       style="font-style:italic;font-variant:normal;font-weight:normal;font-stretch:normal;font-size:24.69444466px;font-family:Chandas;-inkscape-font-specification:Chandas;stroke-width:0.26458332"
       id="path1288"
       inkscape:connector-curvature="0" />
  </g>
  <rect
     style="fill:#cccccc;fill-opacity:1;stroke:#a3a3a3;stroke-width:1.03960311;stroke-linecap:round;stroke-linejoin:round;stroke-miterlimit:4;stroke-dasharray:none;stroke-dashoffset:0;stroke-opacity:1"
     id="rect1263"
     width="48.960396"
     height="0.96039689"
     x="120.5198"
     y="282.51981"
     rx="1.0157676"
     ry="0.7683171" />
</svg>
